<svg width="255" height="242" viewBox="0 0 255 242" fill="none" xmlns="http://www.w3.org/2000/svg">
<path d="M95.6729 120.765L213.203 237.093H254.802V230.505L143.928 120.765H95.6729Z" fill="#00B8B0"/>
<path d="M122.262 0C54.7526 0 0.25 53.9463 0.25 120.765C0.25 187.583 54.7526 241.53 122.262 241.53C136.491 241.53 150.142 239.11 162.809 234.707L136.966 209.128C132.212 209.8 127.322 210.17 122.262 210.17C69.9663 210.17 33.5288 172.526 33.5288 121.067C33.5288 69.6084 69.9663 31.3597 122.262 31.3597C174.558 31.3597 210.69 69.0034 210.69 121.067C210.69 126.815 210.249 132.395 209.365 137.738L236.159 164.258C241.422 150.78 244.309 136.092 244.309 120.765C244.309 53.9463 189.805 0 122.296 0H122.262Z" fill="#242424"/>
</svg>
